<svg width="24" height="25" viewBox="0 0 24 25" fill="none" xmlns="http://www.w3.org/2000/svg">
<path d="M12.0078 22.5C17.5307 22.5 22.0078 18.0228 22.0078 12.5C22.0078 6.97715 17.5307 2.5 12.0078 2.5C6.48496 2.5 2.00781 6.97715 2.00781 12.5C2.00781 18.0228 6.48496 22.5 12.0078 22.5Z" stroke="white" stroke-width="2" stroke-linecap="round" stroke-linejoin="round"/>
<path d="M12.0078 18.5C15.3215 18.5 18.0078 15.8137 18.0078 12.5C18.0078 9.18629 15.3215 6.5 12.0078 6.5C8.6941 6.5 6.00781 9.18629 6.00781 12.5C6.00781 15.8137 8.6941 18.5 12.0078 18.5Z" stroke="white" stroke-width="2" stroke-linecap="round" stroke-linejoin="round"/>
<path d="M12.0078 14.5C13.1124 14.5 14.0078 13.6046 14.0078 12.5C14.0078 11.3954 13.1124 10.5 12.0078 10.5C10.9033 10.5 10.0078 11.3954 10.0078 12.5C10.0078 13.6046 10.9033 14.5 12.0078 14.5Z" stroke="white" stroke-width="2" stroke-linecap="round" stroke-linejoin="round"/>
</svg>
