<svg width="24" height="25" viewBox="0 0 24 25" fill="none" xmlns="http://www.w3.org/2000/svg">
<path d="M20.0078 18.4724V10.3799C20.0078 9.80316 19.7588 9.25451 19.3248 8.87473L13.3248 3.62473C12.5708 2.96494 11.4448 2.96494 10.6908 3.62473L4.6908 8.87473C4.25677 9.25451 4.00781 9.80316 4.00781 10.3799V18.4724C4.00781 19.577 4.90324 20.4724 6.00781 20.4724H9.00781C9.56009 20.4724 10.0078 20.0247 10.0078 19.4724V16.4724C10.0078 15.3678 10.9032 14.4724 12.0078 14.4724C13.1124 14.4724 14.0078 15.3678 14.0078 16.4724V19.4724C14.0078 20.0247 14.4555 20.4724 15.0078 20.4724H18.0078C19.1124 20.4724 20.0078 19.577 20.0078 18.4724Z" stroke="white" stroke-width="2" stroke-linejoin="round"/>
</svg>
