<svg width="614" height="471" viewBox="0 0 614 471" fill="none" xmlns="http://www.w3.org/2000/svg">
<path opacity="0.1" fill-rule="evenodd" clip-rule="evenodd" d="M633.654 0V37.964H669.766V38.5813H633.654L633.654 87.348H669.766V87.9653H633.654L633.654 136.732H669.766V137.349H633.654V186.116H669.766V186.733H633.654L633.654 235.5H669.766V236.117H633.654L633.654 284.884H669.766V285.501H633.654V334.268H669.766V334.885H633.654L633.654 383.652H669.766V384.269H633.654L633.654 433.036H669.766V433.653H633.654V471H633.036L633.036 433.653H584.27V471H583.652V433.653H534.886V471H534.268V433.653H485.501V471H484.884V433.653H436.117V471H435.5V433.653H386.733V471H386.116V433.653H337.349V471H336.732V433.653H287.965V471H287.348V433.653H238.581V471H237.964V433.653H189.197V471H188.58V433.653H139.813V471H139.196V433.653H90.4291V471H89.8118V433.653H41.0451V471H40.4278V433.653H-0.00500488V433.036H40.4278V384.269H-0.00500488V383.652H40.4278V334.885H-0.00500488V334.268H40.4278V285.501H-0.00500488V284.884H40.4278V236.117H-0.00500488V235.5H40.4278V186.733H-0.00500488V186.116H40.4278V137.349H-0.00500488V136.732H40.4278V87.9653H-0.00500488V87.348H40.4278V38.5813H-0.00500488V37.964H40.4278V0H41.0451V37.964H89.8118V0H90.4291V37.964H139.196V0H139.813V37.964H188.58V0H189.197V37.964H237.964V0H238.581V37.964H287.348V0H287.965V37.964H336.732V0H337.35V37.964H386.116V0H386.734V37.964H435.5V0H436.118V37.964H484.884V0H485.502V37.964H534.268V0H534.886V37.964H583.652V0H584.27V37.964H633.036L633.036 0H633.654ZM89.8118 433.036H41.0451V384.269H89.8118V433.036ZM89.8118 383.652H41.0451V334.885H89.8118V383.652ZM89.8118 334.268H41.0451V285.501H89.8118V334.268ZM89.8118 284.884H41.0451V236.117H89.8118V284.884ZM89.8118 235.5H41.0451V186.733H89.8118V235.5ZM89.8118 186.116H41.0451V137.349H89.8118V186.116ZM89.8118 136.732H41.0451V87.9653H89.8118V136.732ZM89.8118 87.348H41.0451V38.5813H89.8118V87.348ZM90.4291 38.5813V87.348H139.196V38.5813H90.4291ZM90.4291 87.9653V136.732H139.196V87.9653H90.4291ZM90.4291 137.349V186.116H139.196V137.349H90.4291ZM90.4291 186.733V235.5H139.196V186.733H90.4291ZM90.4291 236.117V284.884H139.196V236.117H90.4291ZM90.4291 285.501V334.268H139.196V285.501H90.4291ZM90.4291 334.885V383.652H139.196V334.885H90.4291ZM90.4291 384.269V433.036H139.196V384.269H90.4291ZM188.58 433.036H139.813V384.269H188.58V433.036ZM188.58 383.652H139.813V334.885H188.58V383.652ZM188.58 334.268H139.813V285.501H188.58V334.268ZM188.58 235.5H139.813V186.733H188.58V235.5ZM188.58 186.116H139.813V137.349H188.58V186.116ZM188.58 136.732H139.813V87.9653H188.58V136.732ZM188.58 87.348H139.813V38.5813H188.58V87.348ZM189.197 38.5813V87.348H237.964V38.5813H189.197ZM189.197 87.9653V136.732H237.964V87.9653H189.197ZM189.197 137.349V186.116H237.964V137.349H189.197ZM189.197 186.733V235.5H237.964V186.733H189.197ZM189.197 236.117V284.884H237.964V236.117H189.197ZM189.197 285.501V334.268H237.964V285.501H189.197ZM189.197 334.885V383.652H237.964L237.964 334.885H189.197ZM189.197 384.269V433.036H237.964V384.269H189.197ZM287.348 383.652H238.581V334.885H287.348V383.652ZM287.348 334.268H238.581V285.501H287.348V334.268ZM287.348 284.884H238.581V236.117H287.348V284.884ZM287.348 235.5H238.581V186.733H287.348L287.348 235.5ZM287.348 186.116H238.581V137.349H287.348V186.116ZM287.348 136.732H238.581L238.581 87.9653H287.348V136.732ZM287.348 87.348H238.581V38.5813H287.348V87.348ZM287.965 38.5813V87.348H336.732V38.5813H287.965ZM287.965 87.9653V136.732H336.732V87.9653H287.965ZM287.965 137.349V186.116H336.732V137.349H287.965ZM287.965 186.733L287.965 235.5H336.732L336.732 186.733H287.965ZM287.965 236.117V284.884H336.732V236.117H287.965ZM287.965 285.501V334.268H336.732V285.501H287.965ZM287.965 334.885V383.652H336.732V334.885H287.965ZM287.965 384.269V433.036H336.732V384.269H287.965ZM386.116 433.036H337.349V384.269H386.116V433.036ZM386.116 383.652H337.349V334.885H386.116V383.652ZM386.116 334.268H337.349V285.501H386.116V334.268ZM386.116 284.884H337.349V236.117H386.116V284.884ZM386.116 235.5H337.349L337.35 186.733H386.116V235.5ZM386.116 186.116H337.35V137.349H386.116V186.116ZM386.116 136.732H337.35V87.9653H386.116V136.732ZM386.116 87.348H337.35V38.5813H386.116V87.348ZM386.734 38.5813V87.348H435.5V38.5813H386.734ZM386.734 87.9653V136.732H435.5L435.5 87.9653H386.734ZM386.734 186.733V235.5H435.5V186.733H386.734ZM386.733 236.117V284.884H435.5V236.117H386.733ZM386.733 285.501V334.268H435.5V285.501H386.733ZM386.733 334.885V383.652H435.5L435.5 334.885H386.733ZM386.733 384.269V433.036H435.5V384.269H386.733ZM484.884 433.036H436.117V384.269H484.884V433.036ZM484.884 383.652H436.117V334.885H484.884L484.884 383.652ZM484.884 334.268H436.117V285.501H484.884V334.268ZM484.884 284.884H436.117V236.117H484.884V284.884ZM484.884 235.5H436.118V186.733H484.884V235.5ZM484.884 186.116H436.118V137.349H484.884V186.116ZM484.884 136.732H436.118V87.9653H484.884L484.884 136.732ZM484.884 87.348H436.118V38.5813H484.884V87.348ZM485.502 38.5813V87.348H534.268V38.5813H485.502ZM485.502 87.9653V136.732H534.268L534.268 87.9653H485.502ZM485.502 137.349V186.116H534.268V137.349H485.502ZM485.502 186.733V235.5H534.268V186.733H485.502ZM485.501 236.117V284.884H534.268V236.117H485.501ZM485.501 285.501V334.268H534.268V285.501H485.501ZM485.501 334.885V383.652H534.268L534.268 334.885H485.501ZM485.501 384.269V433.036H534.268V384.269H485.501ZM583.652 433.036H534.886V384.269H583.652L583.652 433.036ZM583.652 383.652H534.886V334.885H583.652V383.652ZM583.652 334.268H534.886V285.501H583.652V334.268ZM583.652 284.884H534.886V236.117H583.652V284.884ZM583.652 235.5H534.886L534.886 186.733H583.652V235.5ZM583.652 186.116H534.886V137.349H583.652V186.116ZM583.652 136.732H534.886V87.9653H583.652V136.732ZM583.652 87.348H534.886V38.5813H583.652L583.652 87.348ZM584.27 38.5813L584.27 87.348H633.036V38.5813H584.27ZM584.27 87.9653V136.732H633.036L633.036 87.9653H584.27ZM584.27 137.349L584.27 186.116H633.036L633.036 137.349H584.27ZM584.27 186.733V235.5H633.036V186.733H584.27ZM584.27 236.117V284.884H633.036V236.117H584.27ZM584.27 285.501L584.27 334.268H633.036L633.036 285.501H584.27ZM584.27 334.885V383.652H633.036L633.036 334.885H584.27ZM584.27 384.269L584.27 433.036H633.036V384.269H584.27Z" fill="url(#paint0_linear_1070_1379)"/>
<defs>
<linearGradient id="paint0_linear_1070_1379" x1="617.295" y1="385.813" x2="138.27" y2="84.8788" gradientUnits="userSpaceOnUse">
<stop stop-color="white"/>
<stop offset="1" stop-color="white" stop-opacity="0"/>
</linearGradient>
</defs>
</svg>
