<svg width="615" height="471" viewBox="0 0 615 471" fill="none" xmlns="http://www.w3.org/2000/svg">
<path opacity="0.1" fill-rule="evenodd" clip-rule="evenodd" d="M-19.4426 471V433.036H-55.5547V432.419H-19.4426L-19.4426 383.652H-55.5547V383.035H-19.4426L-19.4426 334.268H-55.5547V333.651H-19.4426V284.884H-55.5547V284.267H-19.4426L-19.4426 235.5H-55.5547V234.883H-19.4426L-19.4426 186.116H-55.5547V185.499H-19.4426V136.732H-55.5547V136.115H-19.4426L-19.4426 87.348H-55.5547V86.7307H-19.4426L-19.4426 37.964H-55.5547V37.3467H-19.4426V0H-18.8253L-18.8253 37.3467H29.9414V0H30.5587V37.3467H79.3254V0H79.9427V37.3467H128.709V0H129.327V37.3467H178.093V0H178.711V37.3467H227.477V0H228.095V37.3467H276.861V0H277.479V37.3467H326.246V0H326.863V37.3467H375.63V0H376.247V37.3467H425.014V0H425.631V37.3467H474.398V0H475.015V37.3467H523.782V0H524.399V37.3467H573.166V0H573.783V37.3467H614.216V37.964H573.783V86.7307H614.216V87.348H573.783V136.115H614.216V136.732H573.783V185.499H614.216V186.116H573.783V234.883H614.216V235.5H573.783V284.267H614.216V284.884H573.783V333.651H614.216V334.268H573.783V383.035H614.216V383.652H573.783V432.419H614.216V433.036H573.783V471H573.166V433.036H524.399V471H523.782V433.036H475.015V471H474.398V433.036H425.631V471H425.014V433.036H376.247V471H375.63V433.036H326.863V471H326.246V433.036H277.479V471H276.861V433.036H228.095V471H227.477V433.036H178.711V471H178.093V433.036H129.327V471H128.709V433.036H79.9427V471H79.3254V433.036H30.5587V471H29.9414V433.036H-18.8253L-18.8253 471H-19.4426ZM524.399 37.964H573.166V86.7307H524.399V37.964ZM524.399 87.348H573.166V136.115H524.399V87.348ZM524.399 136.732H573.166V185.499H524.399V136.732ZM524.399 186.116H573.166V234.883H524.399V186.116ZM524.399 235.5H573.166V284.267H524.399V235.5ZM524.399 284.884H573.166V333.651H524.399V284.884ZM524.399 334.268H573.166V383.035H524.399V334.268ZM524.399 383.652H573.166V432.419H524.399V383.652ZM523.782 432.419V383.652H475.015V432.419H523.782ZM523.782 383.035V334.268H475.015V383.035H523.782ZM523.782 333.651V284.884H475.015V333.651H523.782ZM523.782 284.267V235.5H475.015V284.267H523.782ZM523.782 234.883V186.116H475.015V234.883H523.782ZM523.782 185.499V136.732H475.015V185.499H523.782ZM523.782 136.115V87.348H475.015V136.115H523.782ZM523.782 86.7307V37.964H475.015V86.7307H523.782ZM425.631 37.964H474.398V86.7307H425.631V37.964ZM425.631 87.348H474.398V136.115H425.631V87.348ZM425.631 136.732H474.398V185.499H425.631V136.732ZM425.631 235.5H474.398V284.267H425.631V235.5ZM425.631 284.884H474.398V333.651H425.631V284.884ZM425.631 334.268H474.398V383.035H425.631V334.268ZM425.631 383.652H474.398V432.419H425.631V383.652ZM425.014 432.419V383.652H376.247V432.419H425.014ZM425.014 383.035V334.268H376.247V383.035H425.014ZM425.014 333.651V284.884H376.247V333.651H425.014ZM425.014 284.267V235.5H376.247V284.267H425.014ZM425.014 234.883V186.116H376.247V234.883H425.014ZM425.014 185.499V136.732H376.247V185.499H425.014ZM425.014 136.115V87.348H376.247V136.115H425.014ZM425.014 86.7307V37.964H376.247V86.7307H425.014ZM326.863 87.348H375.63V136.115H326.863V87.348ZM326.863 136.732H375.63V185.499H326.863V136.732ZM326.863 186.116H375.63V234.883H326.863V186.116ZM326.863 235.5H375.63V284.267H326.863L326.863 235.5ZM326.863 284.884H375.63V333.651H326.863V284.884ZM326.863 334.268H375.63V383.035H326.863V334.268ZM326.863 383.652H375.63V432.419H326.863V383.652ZM326.246 432.419V383.652H277.479V432.419H326.246ZM326.246 383.035V334.268H277.479V383.035H326.246ZM326.246 333.651V284.884H277.479V333.651H326.246ZM326.246 284.267L326.246 235.5H277.479L277.479 284.267H326.246ZM326.246 234.883V186.116H277.479V234.883H326.246ZM326.246 185.499V136.732H277.479V185.499H326.246ZM326.246 136.115V87.348H277.479V136.115H326.246ZM326.246 86.7307V37.964H277.479V86.7307H326.246ZM228.095 37.964H276.861V86.7307H228.095V37.964ZM228.095 87.348H276.861V136.115H228.095V87.348ZM228.095 136.732H276.861V185.499H228.095V136.732ZM228.095 186.116H276.861V234.883H228.095V186.116ZM228.095 235.5H276.861L276.861 284.267H228.095V235.5ZM228.095 284.884H276.861V333.651H228.095V284.884ZM228.095 334.268H276.861V383.035H228.095V334.268ZM228.095 383.652H276.861V432.419H228.095V383.652ZM227.477 432.419V383.652H178.711V432.419H227.477ZM227.477 383.035V334.268H178.711L178.711 383.035H227.477ZM227.477 284.267V235.5H178.711V284.267H227.477ZM227.477 234.883V186.116H178.711V234.883H227.477ZM227.477 185.499V136.732H178.711V185.499H227.477ZM227.477 136.115V87.348H178.711L178.711 136.115H227.477ZM227.477 86.7307V37.964H178.711V86.7307H227.477ZM129.327 37.964H178.093V86.7307H129.327V37.964ZM129.327 87.348H178.093V136.115H129.327L129.327 87.348ZM129.327 136.732H178.093V185.499H129.327V136.732ZM129.327 186.116H178.093V234.883H129.327V186.116ZM129.327 235.5H178.093V284.267H129.327V235.5ZM129.327 284.884H178.093V333.651H129.327V284.884ZM129.327 334.268H178.093V383.035H129.327L129.327 334.268ZM129.327 383.652H178.093V432.419H129.327V383.652ZM128.709 432.419V383.652H79.9427V432.419H128.709ZM128.709 383.035V334.268H79.9427L79.9427 383.035H128.709ZM128.709 333.651V284.884H79.9427V333.651H128.709ZM128.709 284.267V235.5H79.9427V284.267H128.709ZM128.709 234.883V186.116H79.9427V234.883H128.709ZM128.709 185.499V136.732H79.9427V185.499H128.709ZM128.709 136.115V87.348H79.9427L79.9427 136.115H128.709ZM128.709 86.7307V37.964H79.9427V86.7307H128.709ZM30.5587 37.964H79.3254V86.7307H30.5587L30.5587 37.964ZM30.5587 87.348H79.3254V136.115H30.5587V87.348ZM30.5587 136.732H79.3254V185.499H30.5587V136.732ZM30.5587 186.116H79.3254V234.883H30.5587V186.116ZM30.5587 235.5H79.3254L79.3254 284.267H30.5587V235.5ZM30.5587 284.884H79.3254V333.651H30.5587V284.884ZM30.5587 334.268H79.3254V383.035H30.5587V334.268ZM30.5587 383.652H79.3254V432.419H30.5587L30.5587 383.652ZM29.9414 432.419L29.9414 383.652H-18.8253V432.419H29.9414ZM29.9414 383.035V334.268H-18.8253L-18.8253 383.035H29.9414ZM29.9414 333.651L29.9414 284.884H-18.8253L-18.8253 333.651H29.9414ZM29.9414 284.267V235.5H-18.8253V284.267H29.9414ZM29.9414 234.883V186.116H-18.8253V234.883H29.9414ZM29.9414 185.499L29.9414 136.732H-18.8253L-18.8253 185.499H29.9414ZM29.9414 136.115V87.348H-18.8253L-18.8253 136.115H29.9414ZM29.9414 86.7307L29.9414 37.964H-18.8253V86.7307H29.9414Z" fill="url(#paint0_linear_1070_1352)"/>
<defs>
<linearGradient id="paint0_linear_1070_1352" x1="-3.08418" y1="85.1874" x2="475.941" y2="386.121" gradientUnits="userSpaceOnUse">
<stop stop-color="white"/>
<stop offset="1" stop-color="white" stop-opacity="0"/>
</linearGradient>
</defs>
</svg>
