<svg width="123" height="109" viewBox="0 0 123 109" fill="none" xmlns="http://www.w3.org/2000/svg">
<g clip-path="url(#clip0_1245_992)">
<path fill-rule="evenodd" clip-rule="evenodd" d="M3.1 56.4702H21.3C22.1214 56.4728 22.9083 56.8003 23.4891 57.3811C24.0699 57.9619 24.3974 58.7488 24.4 59.5702V96.7702C24.3974 97.5916 24.0699 98.3785 23.4891 98.9593C22.9083 99.5401 22.1214 99.8676 21.3 99.8702H3.1C2.27864 99.8676 1.49167 99.5401 0.910882 98.9593C0.33009 98.3785 0.00263681 97.5916 0 96.7702L0 59.5702C0.00263681 58.7488 0.33009 57.9619 0.910882 57.3811C1.49167 56.8003 2.27864 56.4728 3.1 56.4702ZM28.42 96.2302V60.0002H47.77C54.69 61.2402 61.61 65.0002 68.52 69.3502H81.2C86.93 69.6902 89.94 75.5102 84.37 79.3502C79.92 82.6102 74.06 82.4202 68.05 81.8902C63.9 81.6802 63.72 87.2502 68.05 87.2702C69.55 87.3902 71.18 87.0402 72.61 87.0302C80.11 87.0302 86.29 85.5902 90.07 79.6702L92 75.1602L110.85 65.8102C120.29 62.7102 126.99 72.5802 120.04 79.4402C106.889 89.0411 92.8203 97.3181 78.04 104.15C67.64 110.48 57.23 110.26 46.83 104.15L28.43 96.2302H28.42ZM62 7.6502C61.8848 7.55559 61.7524 7.48427 61.61 7.4402C61.5047 7.4162 61.3953 7.4162 61.29 7.4402C61.007 7.46865 60.7457 7.60468 60.56 7.8202L58.03 10.8202C57.8045 11.0914 57.4922 11.2764 57.146 11.3439C56.7997 11.4113 56.4408 11.357 56.13 11.1902C55.79 11.0102 55.43 10.8402 55.07 10.6902C54.71 10.5402 54.28 10.3802 53.9 10.2502C53.52 10.1202 53.13 10.0102 52.68 9.8802C52.23 9.7502 51.85 9.6502 51.46 9.5602C51.1368 9.47812 50.849 9.29335 50.6398 9.03368C50.4306 8.77401 50.3114 8.45346 50.3 8.1202L49.92 4.0002C49.9042 3.8544 49.8636 3.71236 49.8 3.5802C49.7385 3.4724 49.661 3.37461 49.57 3.2902C49.4796 3.20718 49.3694 3.14866 49.25 3.1202C49.1151 3.08936 48.9749 3.08936 48.84 3.1202L43.53 3.6402C43.3881 3.6593 43.2498 3.69976 43.12 3.7602C42.99 3.83117 42.8746 3.92619 42.78 4.0402C42.7012 4.13884 42.6402 4.25053 42.6 4.3702C42.5794 4.47924 42.5794 4.59116 42.6 4.7002L42.97 8.5902C43.0044 8.95016 42.911 9.31073 42.7062 9.60875C42.5015 9.90677 42.1983 10.1232 41.85 10.2202C41.53 10.3302 41.17 10.4602 40.76 10.6302C40.35 10.8002 40 10.9702 39.68 11.1402H39.62C39.28 11.3202 38.92 11.5102 38.62 11.7102H38.52C38.18 11.9102 37.85 12.1202 37.52 12.3302C37.247 12.5107 36.9239 12.6002 36.597 12.5858C36.2701 12.5714 35.9561 12.454 35.7 12.2502L32.24 9.5702C32.1346 9.48547 32.0165 9.41796 31.89 9.3702C31.7912 9.3482 31.6888 9.3482 31.59 9.3702C31.4471 9.39065 31.3086 9.43458 31.18 9.5002H31.12C31.0272 9.56595 30.9432 9.64324 30.87 9.7302L27.52 13.8002C27.4191 13.9218 27.3411 14.0607 27.29 14.2102C27.2702 14.316 27.2702 14.4245 27.29 14.5302V14.6002C27.3005 14.719 27.3345 14.8346 27.39 14.9402V14.9902C27.4562 15.0886 27.5372 15.1763 27.63 15.2502L30.63 17.7802C30.9053 18.0051 31.093 18.3193 31.1606 18.6683C31.2282 19.0172 31.1714 19.3788 31 19.6902C30.8205 20.0154 30.6569 20.3491 30.51 20.6902C30.3437 21.0725 30.1969 21.463 30.07 21.8602C29.95 22.2302 29.82 22.6302 29.69 23.0802C29.56 23.5302 29.46 23.9202 29.37 24.3002C29.308 24.628 29.1407 24.9265 28.8933 25.1504C28.646 25.3742 28.3323 25.5111 28 25.5402L23.87 25.9202C23.7274 25.936 23.5886 25.9766 23.46 26.0402C23.347 26.1025 23.2456 26.1837 23.16 26.2802C23.0822 26.3742 23.0244 26.4831 22.99 26.6002C22.9631 26.7322 22.9631 26.8682 22.99 27.0002L23.51 32.3102C23.5244 32.4563 23.5651 32.5986 23.63 32.7302C23.6967 32.8602 23.7885 32.9757 23.9 33.0702C24.0011 33.1453 24.1121 33.2059 24.23 33.2502C24.3524 33.2713 24.4776 33.2713 24.6 33.2502L28.49 32.8802C28.8405 32.8584 29.1878 32.9578 29.4737 33.1617C29.7596 33.3656 29.9666 33.6617 30.06 34.0002C30.17 34.3202 30.31 34.6902 30.48 35.0902C30.65 35.4902 30.81 35.8402 30.99 36.1802L31.06 36.3202C31.22 36.6302 31.4 36.9702 31.6 37.3202L32.27 38.4202C32.4431 38.6932 32.5265 39.0135 32.5086 39.3362C32.4907 39.659 32.3723 39.9681 32.17 40.2202L29.4 43.6302C29.3271 43.7291 29.2667 43.8366 29.22 43.9502C29.2043 44.0462 29.2043 44.1442 29.22 44.2402C29.233 44.3865 29.2738 44.5291 29.34 44.6602C29.4046 44.7802 29.4931 44.8857 29.6 44.9702C30.98 46.1202 32.4 47.2502 33.77 48.4102C33.8613 48.476 33.9626 48.5266 34.07 48.5602C34.1953 48.5861 34.3247 48.5861 34.45 48.5602C34.6022 48.5442 34.7508 48.5036 34.89 48.4402H34.94C35.0347 48.3765 35.125 48.3064 35.21 48.2302L37.71 45.2302C37.9347 44.9549 38.2482 44.7664 38.5967 44.6971C38.9453 44.6277 39.307 44.6819 39.62 44.8502C39.9646 45.0348 40.3184 45.2017 40.68 45.3502C41.07 45.5202 41.46 45.6602 41.85 45.7902C42.24 45.9202 42.61 46.0402 43.07 46.1702C43.53 46.3002 43.9 46.4002 44.29 46.4902C44.6195 46.5651 44.915 46.747 45.1303 47.0075C45.3456 47.268 45.4685 47.5925 45.48 47.9302L45.86 52.0002C45.8759 52.1441 45.9201 52.2834 45.99 52.4102C46.0453 52.5249 46.1236 52.627 46.22 52.7102C46.3166 52.784 46.4247 52.8414 46.54 52.8802C46.6754 52.9061 46.8146 52.9061 46.95 52.8802L52.25 52.3602C52.3993 52.3457 52.5448 52.3051 52.68 52.2402C52.799 52.178 52.907 52.097 53 52.0002C53.0901 51.8894 53.1611 51.7644 53.21 51.6302C53.2405 51.5121 53.2405 51.3883 53.21 51.2702L52.85 47.3702C52.8139 47.0301 52.8927 46.6877 53.074 46.3977C53.2553 46.1077 53.5285 45.8868 53.85 45.7702C54.24 45.6402 54.63 45.4902 55.01 45.3302H55.13C55.45 45.1902 55.77 45.0302 56.13 44.8502H56.19C56.57 44.6602 56.94 44.4602 57.27 44.2602L58.38 43.5902C58.6515 43.4164 58.9712 43.3333 59.2929 43.3531C59.6147 43.3729 59.9219 43.4944 60.17 43.7002L63.55 46.4602C63.6511 46.5353 63.7621 46.5959 63.88 46.6402C63.9852 46.6653 64.0948 46.6653 64.2 46.6402C64.343 46.6333 64.4828 46.5958 64.61 46.5302C64.7243 46.4575 64.8257 46.3662 64.91 46.2602C66.06 44.8802 67.19 43.4602 68.35 42.0902C68.4175 42.0036 68.4683 41.9053 68.5 41.8002C68.5211 41.6744 68.5211 41.546 68.5 41.4202C68.4827 41.2683 68.4422 41.1199 68.38 40.9802C68.3153 40.8602 68.2308 40.752 68.13 40.6602L65.13 38.2202C64.849 37.9976 64.6558 37.6828 64.5844 37.3314C64.513 36.9801 64.5681 36.6148 64.74 36.3002C64.9246 35.9556 65.0915 35.6018 65.24 35.2402C65.41 34.8302 65.56 34.4402 65.68 34.0802C65.8 33.7202 65.92 33.3002 66.05 32.8502C66.18 32.4002 66.28 32.0302 66.37 31.6302C66.4462 31.2958 66.6325 30.9967 66.8991 30.7809C67.1657 30.5651 67.497 30.4451 67.84 30.4402L72 30.0002C72.1458 29.9844 72.2878 29.9438 72.42 29.8802C72.5256 29.8155 72.6229 29.7383 72.71 29.6502C72.7838 29.5536 72.8412 29.4455 72.88 29.3302C72.9014 29.2044 72.9014 29.076 72.88 28.9502L72.36 23.6502C72.3427 23.5079 72.3022 23.3694 72.24 23.2402V23.1802C72.1711 23.0749 72.0868 22.9805 71.99 22.9002C71.8914 22.8214 71.7797 22.7605 71.66 22.7202C71.551 22.6996 71.439 22.6996 71.33 22.7202L67.4 23.0002C67.0604 23.0328 66.7196 22.9525 66.4303 22.7717C66.141 22.5909 65.9195 22.3197 65.8 22.0002C65.67 21.6302 65.53 21.2402 65.35 20.8402C65.17 20.4402 65 20.0202 64.83 19.6902V19.6202C64.6604 19.2776 64.4735 18.9438 64.27 18.6202C64.07 18.2802 63.84 17.9402 63.61 17.6202C63.4223 17.3438 63.3296 17.0139 63.3458 16.6802C63.362 16.3465 63.4863 16.0271 63.7 15.7702L66.44 12.3802C66.5268 12.2762 66.5945 12.1577 66.64 12.0302C66.6612 11.9347 66.6612 11.8357 66.64 11.7402C66.6194 11.5942 66.5755 11.4524 66.51 11.3202V11.2502C66.4513 11.161 66.3806 11.0802 66.3 11.0102L62.55 7.9302C62.3488 7.87713 62.1613 7.78166 62 7.6502ZM103.38 32.2502C103.222 32.116 103.039 32.0149 102.842 31.9531C102.644 31.8912 102.436 31.8698 102.23 31.8902C101.817 31.937 101.437 32.1411 101.17 32.4602L99.64 34.3102C99.1538 34.0585 98.649 33.8446 98.13 33.6702C97.59 33.5002 97.13 33.3502 96.55 33.2202L96.31 30.6402C96.2734 30.2282 96.0758 29.8473 95.76 29.5802C95.604 29.4479 95.4218 29.3501 95.2253 29.2932C95.0288 29.2364 94.8225 29.2217 94.62 29.2502L91.36 29.5702C90.9721 29.6227 90.6166 29.8146 90.36 30.1102C90.2243 30.2669 90.1222 30.4499 90.0603 30.6477C89.9984 30.8456 89.9778 31.0541 90 31.2602L90.22 33.6302C89.6918 33.8011 89.1797 34.0186 88.69 34.2802C88.2045 34.5199 87.7366 34.794 87.29 35.1002L85.23 33.4402C85.0807 33.3019 84.9035 33.1972 84.7102 33.1334C84.517 33.0696 84.3123 33.048 84.11 33.0702C83.6944 33.1176 83.3139 33.3258 83.05 33.6502L81.05 36.1402C80.9162 36.298 80.8153 36.481 80.7533 36.6783C80.6913 36.8757 80.6694 37.0835 80.689 37.2895C80.7085 37.4955 80.7692 37.6954 80.8672 37.8776C80.9653 38.0598 81.0988 38.2205 81.26 38.3502L83 39.8802C82.7474 40.3647 82.5366 40.8699 82.37 41.3902C82.19 41.9302 82.04 42.3902 81.91 42.9702L79.33 43.2102C78.9189 43.2499 78.5391 43.4469 78.27 43.7602C78.1474 43.9225 78.06 44.1086 78.0135 44.3067C77.967 44.5047 77.9624 44.7103 78 44.9102L78.32 48.1602C78.3601 48.5683 78.5574 48.9448 78.87 49.2102C79.0242 49.3467 79.2054 49.4493 79.4017 49.5113C79.5981 49.5733 79.8054 49.5934 80.01 49.5702L82.38 49.3502C82.5437 49.8733 82.7511 50.3818 83 50.8702C83.2478 51.3643 83.5215 51.845 83.82 52.3102L82.16 54.3102C82.0229 54.46 81.9197 54.6376 81.8576 54.8309C81.7955 55.0242 81.7758 55.2286 81.8 55.4302C81.8575 55.8233 82.061 56.1804 82.37 56.4302L84.9 58.6002C85.0588 58.7312 85.2428 58.828 85.4407 58.8848C85.6385 58.9416 85.8459 58.957 86.05 58.9302C86.4645 58.8903 86.8494 58.6978 87.13 58.3902L88.67 56.5102C89.1534 56.7678 89.6587 56.982 90.18 57.1502C90.698 57.3292 91.2255 57.4794 91.76 57.6002L92 60.1902C92.0431 60.5974 92.2398 60.9729 92.55 61.2402C92.7077 61.3734 92.8913 61.4725 93.0893 61.531C93.2873 61.5895 93.4952 61.6063 93.7 61.5802L96.95 61.2602C97.3569 61.2161 97.732 61.0196 98 60.7102C98.1357 60.5535 98.2378 60.3705 98.2997 60.1727C98.3616 59.9748 98.3822 59.7663 98.36 59.5602L98.13 57.1902C98.6596 57.0229 99.1719 56.8053 99.66 56.5402C100.152 56.2974 100.629 56.027 101.09 55.7302L103.09 57.3902C103.247 57.5259 103.43 57.628 103.628 57.6899C103.825 57.7518 104.034 57.7724 104.24 57.7502C104.446 57.7312 104.646 57.671 104.828 57.573C105.01 57.4751 105.171 57.3415 105.3 57.1802L107.38 54.6602C107.511 54.5013 107.609 54.3175 107.667 54.1199C107.726 53.9223 107.744 53.7149 107.72 53.5102C107.681 53.0932 107.485 52.7068 107.17 52.4302L105.29 50.9102C105.573 50.4302 105.811 49.9247 106 49.4002C106.178 48.8852 106.328 48.3611 106.45 47.8302L109.04 47.5902C109.431 47.5388 109.787 47.3425 110.04 47.0402C110.174 46.8829 110.273 46.6992 110.332 46.5012C110.39 46.3031 110.407 46.095 110.38 45.8902L110.06 42.6402C110.004 42.2512 109.809 41.8958 109.51 41.6402C109.354 41.5027 109.171 41.3989 108.974 41.3352C108.776 41.2715 108.567 41.2494 108.36 41.2702L105.99 41.5002C105.812 40.9747 105.594 40.4633 105.34 39.9702C105.111 39.4791 104.836 39.0104 104.52 38.5702L106.19 36.5102C106.324 36.3587 106.426 36.1809 106.488 35.9881C106.55 35.7953 106.571 35.5916 106.55 35.3902C106.503 34.9768 106.299 34.5972 105.98 34.3302L103.48 32.2802H103.4L103.38 32.2502ZM93.5 39.0802C94.3483 39.0033 95.2034 39.0882 96.02 39.3302C96.8028 39.5793 97.532 39.9727 98.17 40.4902C98.804 41.0141 99.3304 41.6559 99.72 42.3802C100.128 43.1236 100.373 43.945 100.44 44.7902C100.517 45.6385 100.433 46.4937 100.19 47.3102C99.9592 48.0958 99.5754 48.8281 99.0605 49.4648C98.5457 50.1015 97.91 50.6301 97.19 51.0202C96.4439 51.4197 95.6235 51.6613 94.78 51.7302C93.9317 51.8126 93.0755 51.7277 92.26 51.4802C91.4747 51.2346 90.7421 50.8446 90.1 50.3302C89.4716 49.7995 88.9491 49.1549 88.56 48.4302C88.1299 47.6857 87.8672 46.8565 87.79 46.0002C87.6556 44.7524 87.8981 43.4929 88.4863 42.3842C89.0745 41.2755 89.9814 40.3685 91.09 39.7802C91.8325 39.3703 92.6544 39.1248 93.5 39.0602V39.0802ZM62.56 4.5002C62.91 4.61015 63.2456 4.7612 63.56 4.9502C63.7803 5.00296 63.9856 5.1056 64.16 5.2502L68.19 8.6002C68.5639 8.9066 68.8819 9.27537 69.13 9.6902L69.21 9.8202C69.4649 10.2919 69.6278 10.8077 69.69 11.3402C69.7598 11.8993 69.7016 12.4669 69.52 13.0002C69.3613 13.4687 69.121 13.9055 68.81 14.2902L66.75 16.8502L66.88 17.0602C67.1423 17.4997 67.3793 17.9538 67.59 18.4202C67.83 18.8869 68.03 19.3169 68.19 19.7102L68.27 19.9102L70.97 19.6502C71.4941 19.5895 72.0251 19.6371 72.53 19.7902H72.61C73.0736 19.9438 73.5068 20.1774 73.89 20.4802L74.03 20.6002C74.387 20.9136 74.688 21.2856 74.92 21.7002L75 21.8302C75.2299 22.2835 75.3756 22.7748 75.43 23.2802C75.43 24.6202 75.77 27.2202 75.95 28.6202C76.0098 29.126 75.9725 29.6385 75.84 30.1302V30.2202C75.6873 30.7358 75.4322 31.2154 75.09 31.6302C74.7614 32.0371 74.3574 32.3766 73.9 32.6302C73.4253 32.874 72.9103 33.0299 72.38 33.0902L69.2 33.3702L69.12 33.6602C69.01 34.0602 68.87 34.5102 68.69 35.0202C68.51 35.5302 68.36 36.0202 68.19 36.3902L68.11 36.5602L70.3 38.3302C70.7156 38.6896 71.0556 39.1281 71.3 39.6202C71.4826 40.0592 71.5907 40.5256 71.62 41.0002V41.0502C71.6872 41.5868 71.643 42.1315 71.49 42.6502C71.3511 43.1374 71.1241 43.595 70.82 44.0002L67.33 48.2202C66.9967 48.6302 66.5854 48.9701 66.12 49.2202C65.6485 49.4839 65.1276 49.6473 64.59 49.7002C64.0566 49.7622 63.5162 49.718 63 49.5702H62.92C62.4649 49.4157 62.0389 49.1858 61.66 48.8902L59.07 46.7802L58.81 46.9302C58.37 47.1902 57.94 47.4202 57.53 47.6202C57.12 47.8202 56.77 48.0002 56.36 48.1802L56 48.3002L56.28 51.0002C56.342 51.556 56.284 52.1187 56.11 52.6502C55.9413 53.1429 55.6837 53.6004 55.35 54.0002L55.29 54.0602C54.9664 54.4241 54.5845 54.7316 54.16 54.9702H54.06C53.6091 55.1973 53.1216 55.3429 52.62 55.4002C51.28 55.4002 48.68 55.7502 47.28 55.9302C46.7433 55.9894 46.2001 55.9453 45.68 55.8002C45.1636 55.6445 44.684 55.386 44.27 55.0402H44.22C43.8354 54.6991 43.5138 54.2929 43.27 53.8402C43.0202 53.3679 42.8641 52.8518 42.81 52.3202L42.52 49.1502L42.24 49.0702L40.88 48.6402C40.4 48.4802 39.88 48.3102 39.51 48.1302L39.32 48.0502L37.52 50.2402C37.1901 50.6138 36.7933 50.9224 36.35 51.1502L36.24 51.2202C35.8007 51.426 35.3315 51.561 34.85 51.6202H34.8C34.2601 51.6868 33.7122 51.6426 33.19 51.4902C32.7096 51.3448 32.2591 51.1145 31.86 50.8102L27.63 47.3202C27.2222 46.9847 26.8827 46.5739 26.63 46.1102C26.375 45.6422 26.212 45.1296 26.15 44.6002C26.0852 44.0609 26.1433 43.5139 26.32 43.0002C26.4679 42.5392 26.6983 42.1089 27 41.7302L29.11 39.1402L29 38.8902C28.78 38.5202 28.57 38.1202 28.36 37.7002C28.11 37.2402 27.9 36.8002 27.71 36.3502L27.62 36.1202L24.94 36.3702C24.3882 36.4352 23.8288 36.3806 23.3 36.2102C22.834 36.0573 22.4001 35.82 22.02 35.5102L21.87 35.4002C21.4624 35.0488 21.1233 34.625 20.87 34.1502C20.6415 33.6999 20.4958 33.2121 20.44 32.7102C20.44 31.3602 20.09 28.8002 19.91 27.3802C19.8277 26.8298 19.8583 26.2684 20 25.7302C20.1557 25.2138 20.4142 24.7342 20.76 24.3202C21.0975 23.9183 21.5038 23.5797 21.96 23.3202C22.433 23.0739 22.9491 22.9211 23.48 22.8702L26.65 22.5802L26.73 22.2902C26.85 21.9002 26.99 21.4402 27.16 20.9402C27.33 20.4402 27.5 19.9402 27.67 19.5602L27.75 19.3702L25.7 17.6302C25.3033 17.3226 24.9647 16.9467 24.7 16.5202L24.64 16.4202C24.4111 15.9779 24.2685 15.4959 24.22 15.0002V14.9202C24.1631 14.3782 24.2176 13.8304 24.38 13.3102C24.5461 12.7941 24.811 12.3152 25.16 11.9002L28.51 7.8102C28.8161 7.43492 29.189 7.1196 29.61 6.8802L29.73 6.8002C30.1993 6.53985 30.7163 6.37661 31.25 6.3202C31.7992 6.25044 32.357 6.30862 32.88 6.4902C33.3478 6.65057 33.7842 6.89079 34.17 7.2002L36.74 9.2702L37 9.0702C37.41 8.8302 37.83 8.6102 38.25 8.4002C38.67 8.1902 39.13 7.9602 39.54 7.7802L39.78 7.6902L39.51 5.0002C39.4493 4.4761 39.4969 3.94512 39.65 3.4402V3.3602C39.8036 2.89658 40.0372 2.46339 40.34 2.0802L40.49 2.0002C40.8342 1.59319 41.2513 1.25404 41.72 1.0002C42.1714 0.76189 42.663 0.609312 43.17 0.550203C44.51 0.550203 47.11 0.210203 48.51 0.0302032C49.0466 -0.0350264 49.5909 0.00919737 50.11 0.160203C50.6256 0.31288 51.1052 0.567964 51.52 0.910203C51.9222 1.24346 52.261 1.64659 52.52 2.1002C52.7755 2.5859 52.9382 3.11491 53 3.6602L53.28 6.8402L53.57 6.9202C53.96 7.0302 54.42 7.1702 54.93 7.3402L56.3 7.8502L56.5 7.9402L58.23 5.8502C58.5677 5.44068 58.9822 5.101 59.45 4.8502C59.9286 4.5828 60.4554 4.41286 61 4.3502C61.5412 4.28317 62.0905 4.33435 62.61 4.5002H62.56ZM46.71 16.1102C47.4786 16.0453 48.2514 16.0453 49.02 16.1102C49.8203 16.1886 50.6108 16.346 51.38 16.5802C52.1128 16.8102 52.8226 17.1082 53.5 17.4702L53.59 17.5202C54.2237 17.871 54.8259 18.2758 55.39 18.7302C56.564 19.7252 57.5438 20.9288 58.28 22.2802C58.668 22.9733 58.9766 23.708 59.2 24.4702C59.4329 25.2383 59.5804 26.0298 59.64 26.8302C59.7098 27.5953 59.7098 28.3651 59.64 29.1302C59.5718 29.9311 59.4176 30.7223 59.18 31.4902V31.5902C58.9533 32.2811 58.6655 32.9504 58.32 33.5902C57.9586 34.2582 57.5404 34.8939 57.07 35.4902L56.97 35.6002C55.996 36.7424 54.8197 37.695 53.5 38.4102C52.8006 38.7923 52.0633 39.1007 51.3 39.3302C50.5328 39.5526 49.7457 39.6999 48.95 39.7702C48.168 39.8351 47.382 39.8351 46.6 39.7702C45.7996 39.693 45.0089 39.5355 44.24 39.3002C43.5111 39.0683 42.8048 38.7704 42.13 38.4102C41.4625 38.0441 40.827 37.6226 40.23 37.1502C39.6475 36.661 39.1119 36.1187 38.63 35.5302C38.1412 34.9295 37.7062 34.2871 37.33 33.6102C36.9504 32.9108 36.6454 32.1734 36.42 31.4102C36.1871 30.6421 36.0396 29.8506 35.98 29.0502C35.9102 28.2851 35.9102 27.5153 35.98 26.7502C36.0482 25.9493 36.2024 25.1581 36.44 24.3902C36.6681 23.6567 36.9662 22.9468 37.33 22.2702L37.38 22.1802C37.7259 21.5404 38.1311 20.9344 38.59 20.3702L38.67 20.2702C39.1393 19.7109 39.6617 19.1985 40.23 18.7402C40.8309 18.2546 41.4734 17.823 42.15 17.4502C42.8457 17.0674 43.5797 16.7591 44.34 16.5302C45.1109 16.3087 45.9011 16.1614 46.7 16.0902L46.71 16.1102ZM48.71 19.1802C48.1179 19.1252 47.5221 19.1252 46.93 19.1802C46.3441 19.2289 45.7646 19.3361 45.2 19.5002C44.6483 19.6638 44.1154 19.885 43.61 20.1602C43.0925 20.4511 42.6007 20.7857 42.14 21.1602C41.7294 21.4938 41.348 21.8618 41 22.2602C40.6613 22.6832 40.3602 23.1349 40.1 23.6102V23.6902C39.8321 24.199 39.6112 24.7312 39.44 25.2802C39.2321 25.8567 39.0846 26.4532 39 27.0602C38.95 27.6525 38.95 28.2479 39 28.8402C39.0481 29.4303 39.1587 30.0135 39.33 30.5802C39.4921 31.1435 39.7169 31.6869 40 32.2002C40.2874 32.7168 40.6222 33.2056 41 33.6602C41.3521 34.0988 41.7474 34.5008 42.18 34.8602C42.6216 35.2112 43.0935 35.5225 43.59 35.7902C44.1032 36.059 44.6385 36.2831 45.19 36.4602C45.7524 36.6369 46.3326 36.751 46.92 36.8002C47.5221 36.8552 48.1279 36.8552 48.73 36.8002C49.3191 36.7506 49.9018 36.6434 50.47 36.4802C51.0016 36.3141 51.5144 36.0929 52 35.8202C52.5198 35.5329 53.0119 35.1981 53.47 34.8202C53.8814 34.4803 54.2628 34.1056 54.61 33.7002C54.9871 33.2521 55.3218 32.77 55.61 32.2602C55.865 31.7708 56.0823 31.2626 56.26 30.7402V30.6802C56.4337 30.1132 56.5509 29.5303 56.61 28.9402C56.66 28.3479 56.66 27.7525 56.61 27.1602C56.5619 26.5702 56.4513 25.9869 56.28 25.4202C56.1171 24.8683 55.8959 24.3353 55.62 23.8302C55.335 23.3121 55.0001 22.8232 54.62 22.3702C54.2679 21.9316 53.8726 21.5296 53.44 21.1702C53.0221 20.8372 52.5772 20.5395 52.11 20.2802H52.03C51.5171 20.0109 50.9817 19.7868 50.43 19.6102C49.8707 19.4347 49.294 19.3207 48.71 19.2702V19.1802ZM16.25 85.8502C16.9545 85.8482 17.6438 86.0553 18.2305 86.4453C18.8173 86.8353 19.2752 87.3906 19.5461 88.0409C19.8171 88.6912 19.889 89.4073 19.7528 90.0986C19.6166 90.7898 19.2783 91.4251 18.7808 91.924C18.2834 92.4228 17.6491 92.7629 16.9582 92.9011C16.2674 93.0392 15.5511 92.9693 14.9 92.7002C14.2489 92.431 13.6923 91.9747 13.3007 91.3891C12.909 90.8034 12.7 90.1147 12.7 89.4102C12.7 88.4678 13.0737 87.5638 13.7392 86.8964C14.4046 86.2291 15.3076 85.8529 16.25 85.8502Z" fill="white"/>
</g>
<defs>
<clipPath id="clip0_1245_992">
<rect width="122.88" height="108.82" fill="white"/>
</clipPath>
</defs>
</svg>
